<svg width="8" height="11" viewBox="0 0 8 11" fill="none" xmlns="http://www.w3.org/2000/svg">
<path fill-rule="evenodd" clip-rule="evenodd" d="M6.49995 0.499999L3.99995 3L1.49995 0.499999C1.22381 0.223857 0.776096 0.223857 0.499954 0.499999C0.223811 0.776142 0.223811 1.22386 0.499953 1.5L3.29285 4.29289C3.68337 4.68342 4.31654 4.68342 4.70706 4.29289L7.49995 1.5C7.7761 1.22386 7.7761 0.776142 7.49995 0.499999C7.22381 0.223857 6.7761 0.223857 6.49995 0.499999ZM6.49995 6.5L3.99995 9L1.49995 6.5C1.22381 6.22386 0.776096 6.22386 0.499954 6.5C0.223811 6.77614 0.223811 7.22386 0.499953 7.5L3.29285 10.2929C3.68337 10.6834 4.31654 10.6834 4.70706 10.2929L7.49995 7.5C7.7761 7.22386 7.7761 6.77614 7.49995 6.5C7.22381 6.22386 6.7761 6.22386 6.49995 6.5Z" fill="#41F6D7"/>
</svg>
